name rise34.3697peak60.0498fall86.3158.mot
datacolumns 19
datarows 12
range 17.23993800000000 17.25826700000000
endheader
time	ground_force1_vx	ground_force1_vy	ground_force1_vz	ground_force1_px	ground_force1_py	ground_force1_pz	ground_force2_vx	ground_force2_vy	ground_force2_vz	ground_force2_px	ground_force2_py	ground_force2_pz	ground_torque1_x	ground_torque1_y	ground_torque1_z	ground_torque2_x	ground_torque2_y	ground_torque2_z	
17.23993800000000	12.39769100000000	688.27483099999995	36.93620400000000	0.28875700000000	0.00000000000000	0.10501300000000	0.00000000000000	0.00000000000000	0.00000000000000	0.00000000000000	0.00000000000000	0.00000000000000	0.00000000000000	17.93347300000000	0.00000000000000	0.00000000000000	0.00000000000000	0.00000000000000	
17.24159800000000	11.96811500000000	688.70229400000005	36.95017800000000	0.28772100000000	0.00000000000000	0.10504100000000	0.00000000000000	0.00000000000000	0.00000000000000	0.00000000000000	0.00000000000000	0.00000000000000	0.00000000000000	17.99493100000000	0.00000000000000	0.00000000000000	0.00000000000000	0.00000000000000	
17.24327100000000	11.52938400000000	689.17711699999995	36.96517500000000	0.28670600000000	0.00000000000000	0.10506600000000	0.00000000000000	0.00000000000000	0.00000000000000	0.00000000000000	0.00000000000000	0.00000000000000	0.00000000000000	18.06126800000000	0.00000000000000	0.00000000000000	0.00000000000000	0.00000000000000	
17.24493700000000	11.08107200000000	689.69820200000004	36.98102400000000	0.28570900000000	0.00000000000000	0.10508900000000	0.00000000000000	0.00000000000000	0.00000000000000	0.00000000000000	0.00000000000000	0.00000000000000	0.00000000000000	18.13239300000000	0.00000000000000	0.00000000000000	0.00000000000000	0.00000000000000	
17.24660500000000	10.62277700000000	690.26452099999995	36.99757200000000	0.28473200000000	0.00000000000000	0.10510900000000	0.00000000000000	0.00000000000000	0.00000000000000	0.00000000000000	0.00000000000000	0.00000000000000	0.00000000000000	18.20821300000000	0.00000000000000	0.00000000000000	0.00000000000000	0.00000000000000	
17.24827600000000	10.15411500000000	690.87512100000004	37.01468500000000	0.28377200000000	0.00000000000000	0.10512700000000	0.00000000000000	0.00000000000000	0.00000000000000	0.00000000000000	0.00000000000000	0.00000000000000	0.00000000000000	18.28863600000000	0.00000000000000	0.00000000000000	0.00000000000000	0.00000000000000	
17.24993400000000	9.67472800000000	691.52912800000001	37.03224700000000	0.28282900000000	0.00000000000000	0.10514200000000	0.00000000000000	0.00000000000000	0.00000000000000	0.00000000000000	0.00000000000000	0.00000000000000	0.00000000000000	18.37356900000000	0.00000000000000	0.00000000000000	0.00000000000000	0.00000000000000	
17.25160200000000	9.18428200000000	692.22574699999996	37.05016500000000	0.28190200000000	0.00000000000000	0.10515500000000	0.00000000000000	0.00000000000000	0.00000000000000	0.00000000000000	0.00000000000000	0.00000000000000	0.00000000000000	18.46292100000000	0.00000000000000	0.00000000000000	0.00000000000000	0.00000000000000	
17.25327000000000	8.68246900000000	692.96427100000005	37.06836400000000	0.28099100000000	0.00000000000000	0.10516500000000	0.00000000000000	0.00000000000000	0.00000000000000	0.00000000000000	0.00000000000000	0.00000000000000	0.00000000000000	18.55659800000000	0.00000000000000	0.00000000000000	0.00000000000000	0.00000000000000	
17.25493500000000	8.16901000000000	693.74407599999995	37.08679100000000	0.28009300000000	0.00000000000000	0.10517300000000	0.00000000000000	0.00000000000000	0.00000000000000	0.00000000000000	0.00000000000000	0.00000000000000	0.00000000000000	18.65450900000000	0.00000000000000	0.00000000000000	0.00000000000000	0.00000000000000	
17.25660300000000	7.64365600000000	694.56462799999997	37.10541300000000	0.27920900000000	0.00000000000000	0.10517900000000	0.00000000000000	0.00000000000000	0.00000000000000	0.00000000000000	0.00000000000000	0.00000000000000	0.00000000000000	18.75656200000000	0.00000000000000	0.00000000000000	0.00000000000000	0.00000000000000	
17.25826700000000	7.10618600000000	695.42547900000000	37.12421800000000	0.27833700000000	0.00000000000000	0.10518300000000	0.00000000000000	0.00000000000000	0.00000000000000	0.00000000000000	0.00000000000000	0.00000000000000	0.00000000000000	18.86266500000000	0.00000000000000	0.00000000000000	0.00000000000000	0.00000000000000	
